<svg width="188" height="40" viewBox="0 0 188 40" fill="none" xmlns="http://www.w3.org/2000/svg">
<path d="M91.824 9.568C92.3573 9.568 92.816 9.76 93.2 10.144C93.6053 10.5067 93.808 10.9653 93.808 11.52V30.048C93.808 30.6027 93.6267 31.072 93.264 31.456C92.9013 31.8187 92.4213 32 91.824 32C91.2267 32 90.736 31.8187 90.352 31.456C89.9893 31.0933 89.808 30.624 89.808 30.048V17.152L84.528 25.216C84.3147 25.472 84.0693 25.6853 83.792 25.856C83.5147 26.0053 83.2267 26.0693 82.928 26.048C82.6507 26.0693 82.3733 26.0053 82.096 25.856C81.8187 25.6853 81.5733 25.472 81.36 25.216L76.08 16.864V30.048C76.08 30.624 75.9093 31.0933 75.568 31.456C75.2267 31.8187 74.7787 32 74.224 32C73.6907 32 73.2533 31.8187 72.912 31.456C72.5707 31.072 72.4 30.6027 72.4 30.048V11.52C72.4 10.9867 72.592 10.528 72.976 10.144C73.3813 9.76 73.8613 9.568 74.416 9.568C74.736 9.568 75.056 9.65333 75.376 9.824C75.696 9.97333 75.9413 10.176 76.112 10.432L83.088 21.152L90.256 10.432C90.4267 10.176 90.6507 9.97333 90.928 9.824C91.2267 9.65333 91.5253 9.568 91.824 9.568ZM116.187 29.504C116.293 29.7813 116.347 30.0373 116.347 30.272C116.347 30.8267 116.165 31.2853 115.803 31.648C115.44 31.9893 115.024 32.16 114.555 32.16C114.171 32.16 113.819 32.0427 113.499 31.808C113.2 31.5733 112.965 31.2533 112.795 30.848L111.131 26.976H101.595L99.9308 30.88C99.7814 31.2853 99.5468 31.6053 99.2268 31.84C98.9281 32.0533 98.5974 32.16 98.2348 32.16C97.6801 32.16 97.2534 32.0107 96.9548 31.712C96.6774 31.4133 96.5388 31.008 96.5388 30.496C96.5388 30.304 96.5708 30.1013 96.6348 29.888L104.603 10.752C104.773 10.3253 105.029 9.99467 105.371 9.76C105.712 9.52533 106.096 9.42933 106.523 9.472C106.907 9.472 107.259 9.58933 107.579 9.824C107.92 10.0373 108.165 10.3467 108.315 10.752L116.187 29.504ZM109.563 23.296L106.331 15.808L103.163 23.296H109.563ZM136.048 9.6C136.56 9.6 136.976 9.77067 137.296 10.112C137.616 10.4533 137.776 10.88 137.776 11.392V30.048C137.776 30.6027 137.584 31.072 137.2 31.456C136.838 31.8187 136.379 32 135.824 32C135.526 32 135.227 31.9573 134.928 31.872C134.651 31.7653 134.448 31.6267 134.32 31.456L122.576 16.544V30.208C122.576 30.72 122.406 31.1467 122.064 31.488C121.744 31.8293 121.318 32 120.784 32C120.272 32 119.856 31.8293 119.536 31.488C119.216 31.1467 119.056 30.72 119.056 30.208V11.552C119.056 10.9973 119.238 10.5387 119.6 10.176C119.984 9.792 120.454 9.6 121.008 9.6C121.328 9.6 121.638 9.664 121.936 9.792C122.256 9.92 122.491 10.0907 122.64 10.304L134.288 25.152V11.392C134.288 10.88 134.448 10.4533 134.768 10.112C135.11 9.77067 135.536 9.6 136.048 9.6ZM146.588 30.048C146.588 30.6027 146.385 31.072 145.98 31.456C145.574 31.8187 145.105 32 144.572 32C143.996 32 143.516 31.8187 143.132 31.456C142.769 31.072 142.588 30.6027 142.588 30.048V11.552C142.588 10.9973 142.78 10.5387 143.164 10.176C143.548 9.792 144.038 9.6 144.636 9.6C145.169 9.6 145.628 9.792 146.012 10.176C146.396 10.5387 146.588 10.9973 146.588 11.552V30.048ZM167.08 10.688C167.741 11.0293 168.072 11.5733 168.072 12.32C168.072 12.768 167.912 13.2053 167.592 13.632C167.251 14.08 166.813 14.304 166.28 14.304C165.917 14.304 165.555 14.208 165.192 14.016C164.147 13.5253 163.016 13.28 161.8 13.28C160.307 13.28 159.005 13.6 157.896 14.24C156.787 14.8587 155.933 15.744 155.336 16.896C154.739 18.0267 154.44 19.328 154.44 20.8C154.44 23.3173 155.112 25.2267 156.456 26.528C157.821 27.8293 159.603 28.48 161.8 28.48C163.101 28.48 164.232 28.2347 165.192 27.744C165.576 27.5733 165.917 27.488 166.216 27.488C166.771 27.488 167.24 27.7227 167.624 28.192C167.944 28.5973 168.104 29.0347 168.104 29.504C168.104 29.8453 168.019 30.1547 167.848 30.432C167.677 30.7093 167.432 30.9227 167.112 31.072C165.448 31.904 163.677 32.32 161.8 32.32C159.709 32.32 157.789 31.8827 156.04 31.008C154.291 30.112 152.893 28.8 151.848 27.072C150.803 25.344 150.28 23.2533 150.28 20.8C150.28 18.624 150.771 16.672 151.752 14.944C152.755 13.216 154.131 11.872 155.88 10.912C157.629 9.93067 159.603 9.44 161.8 9.44C163.699 9.44 165.459 9.856 167.08 10.688ZM184.135 28.32C184.689 28.32 185.148 28.512 185.51 28.896C185.895 29.2587 186.087 29.6853 186.087 30.176C186.087 30.7093 185.895 31.1467 185.51 31.488C185.148 31.8293 184.689 32 184.135 32H173.415C172.86 32 172.391 31.8187 172.007 31.456C171.644 31.072 171.463 30.6027 171.463 30.048V11.552C171.463 10.9973 171.644 10.5387 172.007 10.176C172.391 9.792 172.86 9.6 173.415 9.6H184.135C184.689 9.6 185.148 9.78133 185.51 10.144C185.895 10.4853 186.087 10.9333 186.087 11.488C186.087 12.0213 185.905 12.4587 185.543 12.8C185.18 13.12 184.711 13.28 184.135 13.28H175.463V18.72H182.695C183.249 18.72 183.708 18.9013 184.071 19.264C184.455 19.6053 184.647 20.0533 184.647 20.608C184.647 21.1413 184.465 21.5787 184.103 21.92C183.74 22.24 183.271 22.4 182.695 22.4H175.463V28.32H184.135Z" fill="white"/>
<path fill-rule="evenodd" clip-rule="evenodd" d="M20.001 2.00098C22.2842 2.00098 24.4 3.19892 25.5747 5.15675L39.0747 27.6568C40.9216 30.735 39.9235 34.7277 36.8452 36.5747C33.7669 38.4216 29.7742 37.4235 27.9273 34.3452L20.001 21.1347L12.0747 34.3452C10.2277 37.4235 6.23503 38.4216 3.15676 36.5747C0.0784883 34.7277 -0.919685 30.735 0.927278 27.6568L14.4273 5.15675C15.602 3.19892 17.7178 2.00098 20.001 2.00098Z" fill="#3AB54A"/>
<path fill-rule="evenodd" clip-rule="evenodd" d="M37.6568 2.92728C40.735 1.08032 44.7277 2.07849 46.5747 5.15676L60.0747 27.6568C61.9216 30.735 60.9235 34.7277 57.8452 36.5747C54.7669 38.4217 50.7742 37.4235 48.9273 34.3452L35.4273 11.8452C33.5803 8.76693 34.5785 4.77424 37.6568 2.92728Z" fill="white"/>
</svg>
