<svg width="60" height="48" viewBox="0 0 60 48" fill="none" xmlns="http://www.w3.org/2000/svg">
<path d="M47.1429 17.2857C47.1429 7.81027 36.596 0.142856 23.5714 0.142856C10.5469 0.142856 0 7.81027 0 17.2857C0 22.7098 3.48214 27.5647 8.90625 30.7121C7.76786 33.4911 6.29464 34.7969 4.98884 36.2701C4.62054 36.7054 4.18527 37.1071 4.3192 37.7433C4.41964 38.3125 4.88839 38.7143 5.39063 38.7143C5.42411 38.7143 5.45759 38.7143 5.49107 38.7143C6.49554 38.5804 7.46652 38.4129 8.37054 38.1786C11.7522 37.308 14.8996 35.8683 17.6786 33.8929C19.5536 34.2277 21.529 34.4286 23.5714 34.4286C36.596 34.4286 47.1429 26.7612 47.1429 17.2857ZM60 25.8571C60 20.2656 56.317 15.3103 50.6585 12.1964C51.1607 13.8371 51.4286 15.5446 51.4286 17.2857C51.4286 23.279 48.3482 28.8036 42.7567 32.8884C37.567 36.6384 30.7701 38.7143 23.5714 38.7143C22.6004 38.7143 21.596 38.6473 20.625 38.5804C24.8103 41.3259 30.3683 43 36.4286 43C38.471 43 40.4464 42.7991 42.3214 42.4643C45.1004 44.4397 48.2478 45.8795 51.6295 46.75C52.5335 46.9844 53.5045 47.1518 54.5089 47.2857C55.0446 47.3527 55.5469 46.9174 55.6808 46.3147C55.8147 45.6786 55.3795 45.2768 55.0112 44.8415C53.7054 43.3683 52.2321 42.0625 51.0938 39.2835C56.5179 36.1362 60 31.3147 60 25.8571Z" fill="#3AB54A"/>
</svg>
