<svg width="65" height="61" viewBox="0 0 65 61" fill="none" xmlns="http://www.w3.org/2000/svg">
<path d="M20.2162 30.5714C18.4752 28.0603 17.5042 25.0469 17.5042 22C17.5042 21.2634 17.5712 20.5268 17.6716 19.7902C16.2319 20.2924 14.7587 20.5603 13.2185 20.5603C8.69838 20.5603 5.21624 17.7143 4.51311 17.7143C0.260882 17.7143 0.361328 26.8214 0.361328 29.5335C0.361328 33.25 3.50865 34.8571 6.85686 34.8571H11.3435C13.5868 32.1786 16.7341 30.6719 20.2162 30.5714ZM56.0756 51.8996C56.0756 44.3326 54.3011 32.7143 44.4908 32.7143C43.3524 32.7143 39.2006 37.3683 32.5042 37.3683C25.8078 37.3683 21.656 32.7143 20.5176 32.7143C10.7073 32.7143 8.93276 44.3326 8.93276 51.8996C8.93276 57.3237 12.5153 60.5714 17.8725 60.5714H47.1359C52.493 60.5714 56.0756 57.3237 56.0756 51.8996ZM21.7899 9.14286C21.7899 4.42187 17.9395 0.571424 13.2185 0.571424C8.49749 0.571424 4.64704 4.42187 4.64704 9.14286C4.64704 13.8638 8.49749 17.7143 13.2185 17.7143C17.9395 17.7143 21.7899 13.8638 21.7899 9.14286ZM45.3613 22C45.3613 14.9018 39.6024 9.14286 32.5042 9.14286C25.406 9.14286 19.647 14.9018 19.647 22C19.647 29.0982 25.406 34.8571 32.5042 34.8571C39.6024 34.8571 45.3613 29.0982 45.3613 22ZM64.647 29.5335C64.647 26.8214 64.7475 17.7143 60.4953 17.7143C59.7921 17.7143 56.31 20.5603 51.7899 20.5603C50.2497 20.5603 48.7765 20.2924 47.3368 19.7902C47.4372 20.5268 47.5042 21.2634 47.5042 22C47.5042 25.0469 46.5332 28.0603 44.7921 30.5714C48.2743 30.6719 51.4216 32.1786 53.6649 34.8571H58.1515C61.4997 34.8571 64.647 33.25 64.647 29.5335ZM60.3613 9.14286C60.3613 4.42187 56.5109 0.571424 51.7899 0.571424C47.0689 0.571424 43.2185 4.42187 43.2185 9.14286C43.2185 13.8638 47.0689 17.7143 51.7899 17.7143C56.5109 17.7143 60.3613 13.8638 60.3613 9.14286Z" fill="#3AB54A"/>
</svg>
