<svg width="60" height="52" viewBox="0 0 60 52" fill="none" xmlns="http://www.w3.org/2000/svg">
<path d="M21.4286 9.14286V4.85714H38.5714V9.14286H21.4286ZM60 30.5714H37.5V35.9286C37.5 37.1004 36.529 38.0714 35.3571 38.0714H24.6429C23.471 38.0714 22.5 37.1004 22.5 35.9286V30.5714H0V46.6429C0 49.5893 2.41071 52 5.35714 52H54.6429C57.5893 52 60 49.5893 60 46.6429V30.5714ZM34.2857 30.5714H25.7143V34.8571H34.2857V30.5714ZM60 14.5C60 11.5536 57.5893 9.14286 54.6429 9.14286H42.8571V3.78571C42.8571 2.01116 41.4174 0.571424 39.6429 0.571424H20.3571C18.5826 0.571424 17.1429 2.01116 17.1429 3.78571V9.14286H5.35714C2.41071 9.14286 0 11.5536 0 14.5V27.3571H60V14.5Z" fill="#3AB54A"/>
</svg>
