<svg width="69" height="53" viewBox="0 0 69 53" fill="none" xmlns="http://www.w3.org/2000/svg">
<path d="M68.7941 48H4.50837V0.85714H0.222656V52.2857H68.7941V48ZM64.5084 6.21428C64.5084 5.61161 64.0396 5.14286 63.4369 5.14286H48.8722C47.9347 5.14286 47.4325 6.28125 48.1356 6.98437L52.1869 11.0357L36.6512 26.5714L28.8499 18.7701C28.4146 18.3348 27.745 18.3348 27.3097 18.7701L7.72266 38.3571L14.1512 44.7857L28.0798 30.8571L35.8811 38.6585C36.3164 39.0938 36.9861 39.0938 37.4213 38.6585L58.6155 17.4643L62.6669 21.5156C63.37 22.2187 64.5084 21.7165 64.5084 20.779V6.21428Z" fill="#3AB54A"/>
</svg>
